<svg width="70" height="44" viewBox="0 0 70 44" fill="none" xmlns="http://www.w3.org/2000/svg">
<path d="M13.2955 4.45455V19H11.5909L3.66477 7.57955H3.52273V19H1.76136V4.45455H3.46591L11.4205 15.9034H11.5625V4.45455H13.2955ZM16.82 19V4.45455H25.5984V6.01705H18.5813V10.9318H25.1438V12.4943H18.5813V17.4375H25.712V19H16.82Z" fill="black"/>
<path d="M53.3068 4.45455H55.0682V14.0852C55.0682 15.0795 54.8338 15.9673 54.3651 16.7486C53.901 17.5251 53.2453 18.1383 52.3977 18.5881C51.5502 19.0331 50.5559 19.2557 49.4148 19.2557C48.2737 19.2557 47.2794 19.0331 46.4318 18.5881C45.5843 18.1383 44.9261 17.5251 44.4574 16.7486C43.9934 15.9673 43.7614 15.0795 43.7614 14.0852V4.45455H45.5227V13.9432C45.5227 14.6534 45.679 15.2855 45.9915 15.8395C46.304 16.3887 46.7491 16.822 47.3267 17.1392C47.9091 17.4517 48.6051 17.608 49.4148 17.608C50.2244 17.608 50.9205 17.4517 51.5028 17.1392C52.0852 16.822 52.5303 16.3887 52.8381 15.8395C53.1506 15.2855 53.3068 14.6534 53.3068 13.9432V4.45455ZM66.5401 8.09091C66.4549 7.37121 66.1093 6.8125 65.5032 6.41477C64.8971 6.01705 64.1538 5.81818 63.2731 5.81818C62.6291 5.81818 62.0657 5.92235 61.5827 6.13068C61.1045 6.33901 60.7305 6.62547 60.4606 6.99006C60.1954 7.35464 60.0629 7.76894 60.0629 8.23295C60.0629 8.62121 60.1552 8.95502 60.3398 9.23438C60.5292 9.509 60.7707 9.73864 61.0643 9.9233C61.3578 10.1032 61.6656 10.2524 61.9876 10.3707C62.3095 10.4844 62.6055 10.5767 62.8754 10.6477L64.3526 11.0455C64.7314 11.1449 65.1528 11.2822 65.6168 11.4574C66.0856 11.6326 66.533 11.8717 66.9592 12.1747C67.39 12.473 67.7451 12.8565 68.0245 13.3253C68.3039 13.794 68.4435 14.3693 68.4435 15.0511C68.4435 15.8371 68.2376 16.5473 67.8256 17.1818C67.4184 17.8163 66.8219 18.3205 66.0359 18.6946C65.2546 19.0687 64.3053 19.2557 63.1879 19.2557C62.1462 19.2557 61.2442 19.0876 60.4819 18.7514C59.7243 18.4152 59.1277 17.9465 58.6921 17.3452C58.2612 16.7438 58.0174 16.0455 57.9606 15.25H59.7788C59.8261 15.7992 60.0108 16.2538 60.3327 16.6136C60.6594 16.9687 61.0714 17.2339 61.5685 17.4091C62.0704 17.5795 62.6102 17.6648 63.1879 17.6648C63.8602 17.6648 64.4639 17.5559 64.9989 17.3381C65.534 17.1155 65.9577 16.8078 66.2702 16.4148C66.5827 16.017 66.739 15.553 66.739 15.0227C66.739 14.5398 66.604 14.1468 66.3342 13.8438C66.0643 13.5407 65.7092 13.2945 65.2688 13.1051C64.8285 12.9157 64.3526 12.75 63.8413 12.608L62.0515 12.0966C60.9151 11.7699 60.0155 11.3035 59.3526 10.6974C58.6897 10.0914 58.3583 9.2983 58.3583 8.31818C58.3583 7.50379 58.5785 6.79356 59.0188 6.1875C59.4639 5.5767 60.0605 5.10322 60.8086 4.76705C61.5614 4.42614 62.4019 4.25568 63.3299 4.25568C64.2674 4.25568 65.1007 4.42377 65.8299 4.75994C66.5591 5.09138 67.1367 5.54593 67.5629 6.12358C67.9937 6.70123 68.221 7.35701 68.2447 8.09091H66.5401Z" fill="black"/>
<line x1="41.8919" y1="4.4984" x2="7.33601" y2="43.3557" stroke="black" stroke-width="1.5"/>
<line x1="27.5624" y1="4.50378" x2="42.5624" y2="21.5038" stroke="black" stroke-width="1.5"/>
</svg>
