<svg width="22" height="19" viewBox="0 0 22 19" fill="none" xmlns="http://www.w3.org/2000/svg">
<path d="M6.89883 14.7869C6.28359 14.5654 5.59863 14.6598 5.06953 15.0494C4.7332 15.2955 4.15488 15.6564 3.45352 15.9805C3.6832 15.3775 3.85957 14.6967 3.91699 13.9543C3.95801 13.4252 3.78164 12.9002 3.43301 12.4982C2.47734 11.4195 1.96875 10.1563 1.96875 8.84375C1.96875 5.58301 5.38535 2.28125 10.5 2.28125C15.6146 2.28125 19.0312 5.58301 19.0312 8.84375C19.0312 12.1045 15.6146 15.4063 10.5 15.4063C9.20391 15.4063 7.98574 15.1807 6.89883 14.7869ZM1.07871 16.3824C1.01309 16.4932 0.943359 16.6039 0.869531 16.7146L0.857226 16.7352C0.791601 16.8295 0.725977 16.9238 0.660352 17.0182C0.516797 17.2109 0.360937 17.3996 0.196875 17.5719C0.00820314 17.7605 -0.0451172 18.0395 0.0574219 18.2855C0.159961 18.5316 0.397852 18.6916 0.664453 18.6916C0.873633 18.6916 1.08281 18.6793 1.29199 18.6588L1.3207 18.6547C1.50117 18.6342 1.68164 18.6096 1.86211 18.5768C1.89492 18.5727 1.92773 18.5645 1.96055 18.5563C2.69062 18.4127 3.39199 18.1666 4.01543 17.8959C4.95469 17.4857 5.75449 16.9977 6.24258 16.6408C7.54687 17.1125 8.99062 17.375 10.5123 17.375C16.3119 17.375 21.0123 13.5564 21.0123 8.84375C21.0123 4.13105 16.2996 0.3125 10.5 0.3125C4.70039 0.3125 0 4.13105 0 8.84375C0 10.6936 0.725977 12.4039 1.95645 13.8025C1.87852 14.8074 1.48887 15.7016 1.07871 16.3824ZM5.90625 10.1563C6.25435 10.1563 6.58819 10.018 6.83433 9.77183C7.08047 9.52569 7.21875 9.19185 7.21875 8.84375C7.21875 8.49565 7.08047 8.16181 6.83433 7.91567C6.58819 7.66953 6.25435 7.53125 5.90625 7.53125C5.55815 7.53125 5.22431 7.66953 4.97817 7.91567C4.73203 8.16181 4.59375 8.49565 4.59375 8.84375C4.59375 9.19185 4.73203 9.52569 4.97817 9.77183C5.22431 10.018 5.55815 10.1563 5.90625 10.1563ZM11.8125 8.84375C11.8125 8.49565 11.6742 8.16181 11.4281 7.91567C11.1819 7.66953 10.8481 7.53125 10.5 7.53125C10.1519 7.53125 9.81806 7.66953 9.57192 7.91567C9.32578 8.16181 9.1875 8.49565 9.1875 8.84375C9.1875 9.19185 9.32578 9.52569 9.57192 9.77183C9.81806 10.018 10.1519 10.1563 10.5 10.1563C10.8481 10.1563 11.1819 10.018 11.4281 9.77183C11.6742 9.52569 11.8125 9.19185 11.8125 8.84375ZM15.0937 10.1563C15.4418 10.1563 15.7757 10.018 16.0218 9.77183C16.268 9.52569 16.4062 9.19185 16.4062 8.84375C16.4062 8.49565 16.268 8.16181 16.0218 7.91567C15.7757 7.66953 15.4418 7.53125 15.0937 7.53125C14.7457 7.53125 14.4118 7.66953 14.1657 7.91567C13.9195 8.16181 13.7812 8.49565 13.7812 8.84375C13.7812 9.19185 13.9195 9.52569 14.1657 9.77183C14.4118 10.018 14.7457 10.1563 15.0937 10.1563Z" fill="black" fill-opacity="0.5"/>
</svg>
